<svg xmlns="http://www.w3.org/2000/svg" width="1600" height="1100" viewBox="0 0 1600 1100">
  <defs>
    <marker id="arrowBlue" markerWidth="10" markerHeight="10" refX="9" refY="3" orient="auto" markerUnits="strokeWidth">
      <path d="M0,0 L0,6 L9,3 z" fill="#2563EB"/>
    </marker>
    <marker id="arrowGreen" markerWidth="10" markerHeight="10" refX="9" refY="3" orient="auto" markerUnits="strokeWidth">
      <path d="M0,0 L0,6 L9,3 z" fill="#16A34A"/>
    </marker>
    <marker id="arrowGray" markerWidth="10" markerHeight="10" refX="9" refY="3" orient="auto" markerUnits="strokeWidth">
      <path d="M0,0 L0,6 L9,3 z" fill="#475569"/>
    </marker>
    <marker id="arrowRed" markerWidth="10" markerHeight="10" refX="9" refY="3" orient="auto" markerUnits="strokeWidth">
      <path d="M0,0 L0,6 L9,3 z" fill="#DC2626"/>
    </marker>
    <style>
      text { font-family: "Yu Gothic", "Meiryo", "Segoe UI", sans-serif; fill: #1f2937; }
      .title { font-size: 30px; font-weight: 700; }
      .groupTitle { font-size: 18px; font-weight: 700; fill: #334155; }
      .boxTitle { font-size: 15px; font-weight: 700; }
      .boxText { font-size: 13px; }
      .small { font-size: 12px; fill: #475569; }
      .arrowBlue { stroke: #2563EB; stroke-width: 2.2; fill: none; marker-end: url(#arrowBlue); }
      .arrowGreen { stroke: #16A34A; stroke-width: 2.2; fill: none; marker-end: url(#arrowGreen); }
      .arrowGray { stroke: #475569; stroke-width: 2.2; fill: none; marker-end: url(#arrowGray); }
      .arrowRed { stroke: #DC2626; stroke-width: 2.4; stroke-dasharray: 7 5; fill: none; marker-end: url(#arrowRed); }
    </style>
  </defs>

  <rect x="0" y="0" width="1600" height="1100" fill="#FFFFFF"/>
  <text x="800" y="58" text-anchor="middle" class="title">wiki-agent Codex運用アーキテクチャ</text>

  <rect x="45" y="110" width="210" height="500" rx="10" fill="#F8FAFC" stroke="#CBD5E1" stroke-width="1.5"/>
  <text x="150" y="142" text-anchor="middle" class="groupTitle">入力</text>

  <rect x="75" y="175" width="150" height="78" rx="8" fill="#E0F2FE" stroke="#0284C7" stroke-width="1.5"/>
  <text x="150" y="205" text-anchor="middle" class="boxTitle">ユーザー</text>
  <text x="150" y="228" text-anchor="middle" class="boxText">Codexへ依頼</text>

  <rect x="75" y="290" width="150" height="72" rx="8" fill="#F0FDFA" stroke="#0F766E" stroke-width="1.5"/>
  <text x="150" y="318" text-anchor="middle" class="boxTitle">_inbox/</text>
  <text x="150" y="340" text-anchor="middle" class="boxText">投入ファイル</text>

  <rect x="75" y="390" width="150" height="72" rx="8" fill="#F0FDFA" stroke="#0F766E" stroke-width="1.5"/>
  <text x="150" y="418" text-anchor="middle" class="boxTitle">00personal/</text>
  <text x="150" y="440" text-anchor="middle" class="boxText">既存資料</text>

  <rect x="75" y="490" width="150" height="72" rx="8" fill="#F0FDFA" stroke="#0F766E" stroke-width="1.5"/>
  <text x="150" y="518" text-anchor="middle" class="boxTitle">Web / URL</text>
  <text x="150" y="540" text-anchor="middle" class="boxText">外部記事</text>

  <rect x="300" y="110" width="240" height="500" rx="10" fill="#F8FAFC" stroke="#CBD5E1" stroke-width="1.5"/>
  <text x="420" y="142" text-anchor="middle" class="groupTitle">入口</text>

  <rect x="325" y="210" width="190" height="80" rx="8" fill="#DBEAFE" stroke="#2563EB" stroke-width="1.5"/>
  <text x="420" y="240" text-anchor="middle" class="boxTitle">inbox-agent.md</text>
  <text x="420" y="263" text-anchor="middle" class="boxText">_inboxを1件ずつwiki化</text>

  <rect x="325" y="340" width="190" height="86" rx="8" fill="#DBEAFE" stroke="#2563EB" stroke-width="1.5"/>
  <text x="420" y="369" text-anchor="middle" class="boxTitle">batch-inbox.md</text>
  <text x="420" y="392" text-anchor="middle" class="boxText">未処理・更新・部分失敗</text>
  <text x="420" y="414" text-anchor="middle" class="boxText">だけをwiki化</text>

  <rect x="325" y="470" width="190" height="80" rx="8" fill="#DBEAFE" stroke="#2563EB" stroke-width="1.5"/>
  <text x="420" y="500" text-anchor="middle" class="boxTitle">web-search.md</text>
  <text x="420" y="523" text-anchor="middle" class="boxText">検索・取得・重複チェック</text>

  <rect x="600" y="110" width="320" height="580" rx="10" fill="#F8FAFC" stroke="#CBD5E1" stroke-width="1.5"/>
  <text x="760" y="142" text-anchor="middle" class="groupTitle">コアパイプライン</text>

  <rect x="635" y="180" width="250" height="75" rx="8" fill="#FEF3C7" stroke="#D97706" stroke-width="1.5"/>
  <text x="760" y="209" text-anchor="middle" class="boxTitle">1. convert-binary.md</text>
  <text x="760" y="232" text-anchor="middle" class="boxText">PDF / Office / URL等をテキスト化</text>

  <rect x="635" y="285" width="250" height="75" rx="8" fill="#FEF3C7" stroke="#D97706" stroke-width="1.5"/>
  <text x="760" y="314" text-anchor="middle" class="boxTitle">2. analyze.md</text>
  <text x="760" y="337" text-anchor="middle" class="boxText">分類先・wiki_type・信頼度判定</text>

  <rect x="635" y="390" width="250" height="68" rx="8" fill="#FFE4E6" stroke="#E11D48" stroke-width="1.5"/>
  <text x="760" y="418" text-anchor="middle" class="boxTitle">record-feedback.md</text>
  <text x="760" y="441" text-anchor="middle" class="boxText">ユーザー修正を記録</text>

  <rect x="635" y="488" width="250" height="75" rx="8" fill="#FEF3C7" stroke="#D97706" stroke-width="1.5"/>
  <text x="760" y="517" text-anchor="middle" class="boxTitle">3. write-wiki.md</text>
  <text x="760" y="540" text-anchor="middle" class="boxText">Front-matter付きMarkdown生成</text>

  <rect x="635" y="595" width="250" height="75" rx="8" fill="#FED7AA" stroke="#EA580C" stroke-width="1.5"/>
  <text x="760" y="624" text-anchor="middle" class="boxTitle">4. place-wiki.md</text>
  <text x="760" y="647" text-anchor="middle" class="boxText">後処理オーケストレーター</text>

  <rect x="980" y="110" width="310" height="580" rx="10" fill="#F8FAFC" stroke="#CBD5E1" stroke-width="1.5"/>
  <text x="1135" y="142" text-anchor="middle" class="groupTitle">後処理</text>

  <rect x="1015" y="178" width="240" height="66" rx="8" fill="#DCFCE7" stroke="#16A34A" stroke-width="1.5"/>
  <text x="1135" y="206" text-anchor="middle" class="boxTitle">update-overview.md</text>
  <text x="1135" y="228" text-anchor="middle" class="boxText">_overview.md更新</text>

  <rect x="1015" y="265" width="240" height="72" rx="8" fill="#DCFCE7" stroke="#16A34A" stroke-width="1.5"/>
  <text x="1135" y="293" text-anchor="middle" class="boxTitle">index-builder.md</text>
  <text x="1135" y="315" text-anchor="middle" class="boxText">npz add / rebuild</text>

  <rect x="1015" y="360" width="240" height="72" rx="8" fill="#DCFCE7" stroke="#16A34A" stroke-width="1.5"/>
  <text x="1135" y="388" text-anchor="middle" class="boxTitle">route-binary.md</text>
  <text x="1135" y="410" text-anchor="middle" class="boxText">元ファイルを00personalへ移動</text>

  <rect x="1015" y="455" width="240" height="72" rx="8" fill="#EDE9FE" stroke="#7C3AED" stroke-width="1.5"/>
  <text x="1135" y="483" text-anchor="middle" class="boxTitle">processed-sources.yaml</text>
  <text x="1135" y="505" text-anchor="middle" class="boxText">処理状態・元資料対応</text>

  <rect x="1015" y="550" width="240" height="72" rx="8" fill="#EDE9FE" stroke="#7C3AED" stroke-width="1.5"/>
  <text x="1135" y="578" text-anchor="middle" class="boxTitle">change_log_YYYY-MM.md</text>
  <text x="1135" y="600" text-anchor="middle" class="boxText">追加・新規フォルダを記録</text>

  <rect x="1350" y="170" width="200" height="82" rx="8" fill="#F1F5F9" stroke="#475569" stroke-width="1.5"/>
  <text x="1450" y="201" text-anchor="middle" class="boxTitle">KnowledgeBase/</text>
  <text x="1450" y="224" text-anchor="middle" class="boxText">wiki Markdown群</text>

  <rect x="1350" y="300" width="200" height="76" rx="8" fill="#F1F5F9" stroke="#475569" stroke-width="1.5"/>
  <text x="1450" y="329" text-anchor="middle" class="boxTitle">personal-index.yaml</text>
  <text x="1450" y="352" text-anchor="middle" class="boxText">00personal索引</text>

  <rect x="1350" y="425" width="200" height="86" rx="8" fill="#F1F5F9" stroke="#475569" stroke-width="1.5"/>
  <text x="1450" y="456" text-anchor="middle" class="boxTitle">learning</text>
  <text x="1450" y="479" text-anchor="middle" class="boxText">feedback-log.md</text>
  <text x="1450" y="501" text-anchor="middle" class="boxText">classification-hints.md</text>

  <rect x="300" y="745" width="690" height="255" rx="10" fill="#F8FAFC" stroke="#CBD5E1" stroke-width="1.5"/>
  <text x="645" y="778" text-anchor="middle" class="groupTitle">maintenance-agent.md</text>

  <rect x="335" y="815" width="290" height="86" rx="8" fill="#E0E7FF" stroke="#4F46E5" stroke-width="1.5"/>
  <text x="480" y="843" text-anchor="middle" class="boxTitle">週次タスク</text>
  <text x="480" y="865" text-anchor="middle" class="boxText">index rebuild / overview全更新</text>
  <text x="480" y="887" text-anchor="middle" class="boxText">sync-personal / sync-wiki / integrity</text>

  <rect x="665" y="815" width="290" height="86" rx="8" fill="#E0E7FF" stroke="#4F46E5" stroke-width="1.5"/>
  <text x="810" y="843" text-anchor="middle" class="boxTitle">月次タスク</text>
  <text x="810" y="865" text-anchor="middle" class="boxText">update-changelog.md</text>
  <text x="810" y="887" text-anchor="middle" class="boxText">learn-from-feedback.md</text>

  <rect x="335" y="925" width="290" height="55" rx="8" fill="#E0E7FF" stroke="#4F46E5" stroke-width="1.5"/>
  <text x="480" y="949" text-anchor="middle" class="boxTitle">check-integrity.md</text>
  <text x="480" y="970" text-anchor="middle" class="boxText">FM補完・削除済みソース確認</text>

  <rect x="665" y="925" width="290" height="55" rx="8" fill="#E0E7FF" stroke="#4F46E5" stroke-width="1.5"/>
  <text x="810" y="949" text-anchor="middle" class="boxTitle">learn-from-feedback.md</text>
  <text x="810" y="970" text-anchor="middle" class="boxText">承認後に分類ルールへ昇格</text>

  <rect x="1030" y="775" width="520" height="145" rx="10" fill="#FEE2E2" stroke="#DC2626" stroke-width="1.8"/>
  <text x="1290" y="808" text-anchor="middle" class="boxTitle">Codex並行運用の注意</text>
  <text x="1290" y="835" text-anchor="middle" class="boxText">inbox / batch / maintenance は同時実行しない</text>
  <text x="1290" y="858" text-anchor="middle" class="boxText">npz・YAML・_overview・change_log の書き込み競合に注意</text>
  <text x="1290" y="881" text-anchor="middle" class="boxText">削除済みソース・低信頼度分類はユーザー確認を挟む</text>

  <path class="arrowBlue" d="M225 214 H325"/>
  <path class="arrowBlue" d="M225 326 H325 V250"/>
  <path class="arrowBlue" d="M225 426 H325 V383"/>
  <path class="arrowBlue" d="M225 526 H325 V510"/>

  <path class="arrowBlue" d="M515 250 H635 V218"/>
  <path class="arrowBlue" d="M515 383 H585 V218 H635"/>
  <path class="arrowBlue" d="M515 510 H585 V526 H635"/>

  <path class="arrowBlue" d="M760 255 V285"/>
  <path class="arrowBlue" d="M760 360 V390"/>
  <text x="786" y="379" class="small">修正時</text>
  <path class="arrowBlue" d="M760 458 V488"/>
  <path class="arrowBlue" d="M760 563 V595"/>

  <path class="arrowGreen" d="M885 633 H945 V211 H1015"/>
  <path class="arrowGreen" d="M885 633 H945 V301 H1015"/>
  <path class="arrowGreen" d="M885 633 H945 V396 H1015"/>
  <path class="arrowGray" d="M885 633 H945 V491 H1015"/>
  <path class="arrowGray" d="M885 633 H945 V586 H1015"/>

  <path class="arrowGray" d="M1255 211 H1350"/>
  <path class="arrowGray" d="M1255 396 H1350 V338"/>
  <path class="arrowGray" d="M885 424 H1320 V468 H1350"/>

  <path class="arrowBlue" d="M150 253 V710 H645 V745"/>
  <path class="arrowGreen" d="M625 858 H1015 V301"/>
  <path class="arrowGray" d="M955 858 H1320 V468 H1350"/>
  <path class="arrowRed" d="M990 872 H1030"/>

  <text x="70" y="1040" class="small">作成対象: ARCHITECTURE-codex.md / ARCHITECTURE-codex.svg</text>
  <text x="70" y="1062" class="small">注: 実運用では共有データストアへの同時書き込みを避ける。</text>
</svg>
